# xmcd CD database file
#
# Track frame offsets:
#	150
#	13387
#	26217
#	38602
#	53112
#	66080
#	78997
#	86782
#	98475
#	112112
#	123392
#	137927
#	149352
#	164457
#	175777
#
# Disc length: 2541 seconds
#
# Revision: 0
# Processed by: cddbd v1.4PL0 Copyright (c) Steve Scherf et al.
# Submitted via: CDex 1.51
#
DISCID=d009eb0f
DTITLE=Jazz Kings - New Orleans
DYEAR=2001
DGENRE=Jazz
TTITLE0=It don't Mean a Thing
TTITLE1=Rose de Picardie
TTITLE2=Saint Louis Blues
TTITLE3=Royal Garden Blues
TTITLE4=Les Yeux Noirs
TTITLE5=Muskrat Ramble
TTITLE6=Les Oignons
TTITLE7=Clearwater
TTITLE8=Ain't She Sweet
TTITLE9=That's a Plainty
TTITLE10=Hello Dolly
TTITLE11=Louisiana Blues
TTITLE12=On The Sunny Side of The Street
TTITLE13=Minor Swing
TTITLE14=Pondichery
EXTD=YEAR: 2001
EXTT0=
EXTT1=
EXTT2=
EXTT3=
EXTT4=
EXTT5=
EXTT6=
EXTT7=
EXTT8=
EXTT9=
EXTT10=
EXTT11=
EXTT12=
EXTT13=
EXTT14=
PLAYORDER=
